<svg width="39" height="39" viewBox="0 0 39 39" fill="none" xmlns="http://www.w3.org/2000/svg">
<g id="Frame">
<path id="Vector" d="M26.215 4.25659H12.6055C10.5007 4.25884 8.48269 5.09598 6.99435 6.58432C5.50601 8.07265 4.66888 10.0906 4.66663 12.1954V25.8049C4.66888 27.9097 5.50601 29.9277 6.99435 31.416C8.48269 32.9044 10.5007 33.7415 12.6055 33.7438H26.215C28.3198 33.7415 30.3377 32.9044 31.8261 31.416C33.3144 29.9277 34.1516 27.9097 34.1538 25.8049V12.1954C34.1516 10.0906 33.3144 8.07265 31.8261 6.58432C30.3377 5.09598 28.3198 4.25884 26.215 4.25659ZM19.4102 25.8049C18.0644 25.8049 16.7487 25.4058 15.6297 24.6581C14.5107 23.9104 13.6385 22.8476 13.1235 21.6042C12.6084 20.3608 12.4737 18.9926 12.7362 17.6726C12.9988 16.3527 13.6469 15.1402 14.5985 14.1885C15.5502 13.2368 16.7627 12.5888 18.0827 12.3262C19.4027 12.0636 20.7709 12.1984 22.0143 12.7134C23.2577 13.2285 24.3204 14.1006 25.0681 15.2197C25.8159 16.3387 26.215 17.6543 26.215 19.0002C26.2131 20.8043 25.4955 22.5341 24.2198 23.8098C22.9441 25.0855 21.2144 25.803 19.4102 25.8049ZM27.9161 12.1954C27.5797 12.1954 27.2508 12.0957 26.971 11.9087C26.6912 11.7218 26.4732 11.4561 26.3444 11.1453C26.2157 10.8344 26.182 10.4924 26.2476 10.1624C26.3133 9.83238 26.4753 9.52926 26.7132 9.29135C26.9511 9.05343 27.2543 8.89141 27.5842 8.82577C27.9142 8.76013 28.2563 8.79382 28.5671 8.92258C28.878 9.05133 29.1437 9.26938 29.3306 9.54914C29.5175 9.8289 29.6173 10.1578 29.6173 10.4943C29.6173 10.9454 29.4381 11.3781 29.1191 11.6972C28.8 12.0162 28.3673 12.1954 27.9161 12.1954ZM23.9467 19.0002C23.9467 19.8974 23.6806 20.7745 23.1822 21.5205C22.6837 22.2665 21.9752 22.848 21.1463 23.1914C20.3173 23.5347 19.4052 23.6245 18.5252 23.4495C17.6452 23.2745 16.8369 22.8424 16.2024 22.208C15.568 21.5735 15.1359 20.7652 14.9609 19.8852C14.7859 19.0052 14.8757 18.0931 15.219 17.2641C15.5624 16.4352 16.1439 15.7267 16.8899 15.2282C17.6359 14.7298 18.513 14.4637 19.4102 14.4637C20.6134 14.4637 21.7672 14.9416 22.618 15.7924C23.4688 16.6432 23.9467 17.797 23.9467 19.0002Z" fill="#BC995D"/>
</g>
</svg>
