<svg width="42" height="42" viewBox="0 0 42 42" fill="none" xmlns="http://www.w3.org/2000/svg">
<g id="Frame 71">
<path id="Vector" d="M20.8136 19.462H32.0984C32.207 20.0687 32.2847 20.6604 32.2847 21.4544C32.2847 28.2723 27.7082 33.1287 20.8126 33.1287C14.197 33.1287 8.8584 27.7901 8.8584 21.1744C8.8584 14.5588 14.197 9.22021 20.8126 9.22021C24.0343 9.22021 26.7429 10.4037 28.8289 12.3492L25.5754 15.4783C24.6878 14.6225 23.1318 13.6263 20.8126 13.6263C16.7342 13.6263 13.403 17.0044 13.403 21.1754C13.403 25.3465 16.7342 28.7245 20.8126 28.7245C25.5445 28.7245 27.3187 25.3315 27.5996 23.5723H20.8126V19.463L20.8136 19.462Z" fill="#E4C590"/>
</g>
</svg>
