<svg width="41" height="42" viewBox="0 0 41 42" fill="none" xmlns="http://www.w3.org/2000/svg">
<path d="M8.58435 15.273C8.58435 13.7081 9.20601 12.2073 10.3126 11.1008C11.4191 9.99421 12.9199 9.37256 14.4848 9.37256H26.2858C27.8507 9.37256 29.3515 9.99421 30.4581 11.1008C31.5646 12.2073 32.1863 13.7081 32.1863 15.273V27.074C32.1863 28.6389 31.5646 30.1397 30.4581 31.2463C29.3515 32.3528 27.8507 32.9745 26.2858 32.9745H14.4848C12.9199 32.9745 11.4191 32.3528 10.3126 31.2463C9.20601 30.1397 8.58435 28.6389 8.58435 27.074V15.273Z" stroke="#E4C590" stroke-width="2.14563" stroke-linecap="round" stroke-linejoin="round"/>
<path d="M27.0228 14.5356V14.5504M15.9594 21.1737C15.9594 22.3474 16.4256 23.473 17.2555 24.3029C18.0854 25.1328 19.211 25.5991 20.3847 25.5991C21.5584 25.5991 22.684 25.1328 23.5139 24.3029C24.3438 23.473 24.8101 22.3474 24.8101 21.1737C24.8101 20 24.3438 18.8744 23.5139 18.0445C22.684 17.2146 21.5584 16.7483 20.3847 16.7483C19.211 16.7483 18.0854 17.2146 17.2555 18.0445C16.4256 18.8744 15.9594 20 15.9594 21.1737Z" stroke="#E4C590" stroke-width="2.14563" stroke-linecap="round" stroke-linejoin="round"/>
</svg>
