<svg width="33" height="27" viewBox="0 0 33 27" fill="none" xmlns="http://www.w3.org/2000/svg">
<g id="download (1) 1" clip-path="url(#clip0_6134_1176)">
<path id="Vector" d="M9.14993 14.6244C9.14993 15.3711 8.56346 15.9752 7.85093 15.9752C7.12499 15.9752 6.53762 15.372 6.53762 14.6244C6.53762 13.8915 7.1241 13.2883 7.85093 13.2883C8.56346 13.2883 9.14993 13.8915 9.14993 14.6244ZM25.2699 14.6106C25.2699 15.3573 24.6834 15.9614 23.9566 15.9614C23.2297 15.9614 22.6433 15.3582 22.6433 14.6106C22.6433 13.863 23.2297 13.2745 23.9566 13.2745C24.6834 13.2745 25.2699 13.8639 25.2699 14.6106ZM10.7422 14.6244C10.7422 13.1016 9.5272 11.851 8.04582 11.851C6.55103 11.851 5.34948 13.1007 5.34948 14.6244C5.34948 16.1619 6.55103 17.3978 8.04582 17.3978C9.52631 17.3978 10.7422 16.1619 10.7422 14.6244ZM26.8487 14.6106C26.8487 13.0878 25.6471 11.8372 24.1524 11.8372C22.6719 11.8372 21.456 13.0869 21.456 14.6106C21.456 16.1481 22.671 17.384 24.1524 17.384C25.6471 17.384 26.8487 16.1481 26.8487 14.6106ZM11.9294 14.6244C11.9294 16.8369 10.1977 18.6328 8.04582 18.6328C5.89393 18.6328 4.14882 16.8369 4.14882 14.6244C4.14882 12.4257 5.89483 10.6299 8.04582 10.6299C10.1968 10.6299 11.9294 12.4257 11.9294 14.6244ZM28.0503 14.6106C28.0503 16.8231 26.3042 18.6052 24.1533 18.6052C22.0157 18.6052 20.2697 16.824 20.2697 14.6106C20.2697 12.3972 22.0157 10.6161 24.1533 10.6161C26.3042 10.6161 28.0503 12.3972 28.0503 14.6106ZM14.5837 14.6529C14.5837 10.9894 11.6925 8.01464 8.12986 8.01464C4.58152 8.01464 1.69029 10.9885 1.69029 14.6529C1.69029 18.3173 4.58152 21.2912 8.12986 21.2912C11.6916 21.2912 14.5837 18.3173 14.5837 14.6529ZM23.9154 6.42013C21.6107 5.38563 19.0127 4.82562 16.1492 4.82562C13.2856 4.82562 10.4355 5.38563 8.14506 6.40633C12.5731 6.42105 16.1492 10.0993 16.1492 14.6538C16.1492 10.1857 19.5992 6.54886 23.9154 6.42013ZM30.6062 14.6529C30.6062 10.9894 27.7284 8.01464 24.1667 8.01464C20.6049 8.01464 17.7128 10.9885 17.7128 14.6529C17.7128 18.3173 20.604 21.2912 24.1667 21.2912C27.7293 21.2912 30.6062 18.3173 30.6062 14.6529ZM26.8907 6.52128H32.2405C31.4019 7.52727 30.7877 8.87718 30.634 9.81145C31.5977 11.1761 32.1708 12.8432 32.1708 14.6538C32.1708 19.2084 28.5804 22.8866 24.1667 22.8866C21.6527 22.8866 19.4168 21.7087 17.9506 19.8548C17.9506 19.8548 17.2944 20.6595 16.1483 22.4268C15.9525 22.0103 14.961 20.5592 14.3602 19.841C12.8932 21.7087 10.6447 22.8875 8.12986 22.8875C3.71612 22.8875 0.125763 19.2093 0.125763 14.6548C0.125763 12.8441 0.698826 11.1779 1.66257 9.81237C1.5088 8.8781 0.894614 7.52819 0.0560303 6.5222H5.15459C7.89295 4.63987 11.874 3.46191 16.1483 3.46191C20.4225 3.46191 24.1524 4.63987 26.8907 6.5222V6.52128Z" fill="#E4C590"/>
</g>
<defs>
<clipPath id="clip0_6134_1176">
<rect width="32.1845" height="25.7476" fill="white" transform="translate(0.0570068 0.299805)"/>
</clipPath>
</defs>
</svg>
